<svg width="128" height="128" viewBox="0 0 128 128" fill="none" xmlns="http://www.w3.org/2000/svg">
<rect width="128" height="128" rx="24" fill="black"/>
<path d="M117.001 64L64.0006 117.001L11 64L64.0006 10.9994L117.001 64ZM19.2243 64L64.0006 108.776L108.777 64L64.0006 19.2237L19.2243 64Z" fill="#2AC8F4"/>
<path d="M43 54.3333H50.3333V69H43V54.3333Z" fill="url(#paint0_radial_59_22)"/>
<path d="M43 69H79.6667V76.3333H50.3333C46.2833 76.3333 43 73.0501 43 69Z" fill="url(#paint1_radial_59_22)"/>
<path d="M79.6667 54.3333H87V69C87 73.0501 83.7168 76.3333 79.6667 76.3333V54.3333Z" fill="url(#paint2_radial_59_22)"/>
<path d="M59.5 54.3333C59.5 50.2832 62.7832 47 66.8333 47H79.6667C83.7168 47 87 50.2832 87 54.3333L59.5 54.3333Z" fill="url(#paint3_radial_59_22)"/>
<path d="M59.5 54.3333L66.8333 54.3333V67.1667H59.5V54.3333Z" fill="url(#paint4_radial_59_22)"/>
<path d="M59.5 78.1667H66.8333V87.3333H59.5V78.1667Z" fill="url(#paint5_radial_59_22)"/>
<defs>
<radialGradient id="paint0_radial_59_22" cx="0" cy="0" r="1" gradientUnits="userSpaceOnUse" gradientTransform="translate(81.5 48.5) rotate(132.965) scale(69.694 76.0298)">
<stop stop-color="#F3C1A2"/>
<stop offset="1" stop-color="#D9F02A"/>
</radialGradient>
<radialGradient id="paint1_radial_59_22" cx="0" cy="0" r="1" gradientUnits="userSpaceOnUse" gradientTransform="translate(81.5 48.5) rotate(132.965) scale(69.694 76.0298)">
<stop stop-color="#F3C1A2"/>
<stop offset="1" stop-color="#D9F02A"/>
</radialGradient>
<radialGradient id="paint2_radial_59_22" cx="0" cy="0" r="1" gradientUnits="userSpaceOnUse" gradientTransform="translate(81.5 48.5) rotate(132.965) scale(69.694 76.0298)">
<stop stop-color="#F3C1A2"/>
<stop offset="1" stop-color="#D9F02A"/>
</radialGradient>
<radialGradient id="paint3_radial_59_22" cx="0" cy="0" r="1" gradientUnits="userSpaceOnUse" gradientTransform="translate(81.5 48.5) rotate(132.965) scale(69.694 76.0298)">
<stop stop-color="#F3C1A2"/>
<stop offset="1" stop-color="#D9F02A"/>
</radialGradient>
<radialGradient id="paint4_radial_59_22" cx="0" cy="0" r="1" gradientUnits="userSpaceOnUse" gradientTransform="translate(81.5 48.5) rotate(132.965) scale(69.694 76.0298)">
<stop stop-color="#F3C1A2"/>
<stop offset="1" stop-color="#D9F02A"/>
</radialGradient>
<radialGradient id="paint5_radial_59_22" cx="0" cy="0" r="1" gradientUnits="userSpaceOnUse" gradientTransform="translate(81.5 48.5) rotate(132.965) scale(69.694 76.0298)">
<stop stop-color="#F3C1A2"/>
<stop offset="1" stop-color="#D9F02A"/>
</radialGradient>
</defs>
</svg>
